# xmcd
#
# Track frame offsets:
#	150
#	13667
#	26214
#	38663
#	49997
#	64048
#	77855
#	96558
#	109090
#	121345
#	135098
#	156737
#	171034
#	182618
#	194064
#	212283
#	225509
#	249958
#
# Disc length: 3491 seconds
#
# Revision: 0
# Processed by: cddbd v1.5.2PL0 Copyright (c) Steve Scherf et al.
# Submitted via: audiograbber 1.83.01
#
DISCID=f20da112
DTITLE=bobby bear - country
DYEAR=1900
DGENRE=Country
TTITLE0=Detroit City
TTITLE1=Five Hundred Miles
TTITLE2=Green Green Grass Of Home
TTITLE3=Please Don't Tell Me How The Story Ends
TTITLE4=Ride Me Down Easy
TTITLE5=Marie Laveau
TTITLE6=Tequila Sheila
TTITLE7=Four Strong Winds
TTITLE8=The Streets Of Baltimore
TTITLE9=Miller's Cave
TTITLE10=Numbers
TTITLE11=All American Boy
TTITLE12=Shame On Me
TTITLE13=Daddy, What If
TTITLE14=The Jogger
TTITLE15=The Mermaid Song
TTITLE16=The Winner
TTITLE17=Come Sundown (She'll Be Gone)
EXTD=
EXTT0=
EXTT1=
EXTT2=
EXTT3=
EXTT4=
EXTT5=
EXTT6=
EXTT7=
EXTT8=
EXTT9=
EXTT10=
EXTT11=
EXTT12=
EXTT13=
EXTT14=
EXTT15=
EXTT16=
EXTT17=
PLAYORDER=
